<?xml version="1.0" encoding="UTF-8" standalone="no"?><!DOCTYPE svg PUBLIC "-//W3C//DTD SVG 1.1//EN" "http://www.w3.org/Graphics/SVG/1.1/DTD/svg11.dtd"><svg width="100%" height="100%" viewBox="0 0 84 84" version="1.1" xmlns="http://www.w3.org/2000/svg" xmlns:xlink="http://www.w3.org/1999/xlink" xml:space="preserve" xmlns:serif="http://www.serif.com/" style="fill-rule:evenodd;clip-rule:evenodd;stroke-linejoin:round;stroke-miterlimit:2;"><path d="M71.472,0l-59.763,0c-3.105,0 -6.086,1.234 -8.28,3.429c-2.195,2.194 -3.429,5.175 -3.429,8.28l-0,59.763c-0,3.104 1.234,6.085 3.429,8.28c2.194,2.195 5.175,3.428 8.28,3.428l27.197,0l-0,-30.36l-10.282,-0l-0,-11.843l10.282,-0l-0,-8.725c-0,-4.944 1.368,-8.786 4.104,-11.516c2.732,-2.732 6.44,-4.107 11.126,-4.107c4.686,0 7.725,0.183 9.111,0.527l-0,10.544l-6.247,0c-2.257,0 -3.798,0.476 -4.621,1.434c-0.824,0.951 -1.234,2.388 -1.234,4.293l0,7.55l11.712,-0l-1.557,11.843l-10.155,-0l0,30.36l20.327,0c3.104,0 6.085,-1.233 8.28,-3.428c2.195,-2.195 3.428,-5.176 3.428,-8.28l0,-59.763c0,-3.105 -1.233,-6.086 -3.428,-8.28c-2.195,-2.195 -5.176,-3.429 -8.28,-3.429Z" style="fill:#fff;fill-rule:nonzero;"/></svg>