<?xml version="1.0" encoding="UTF-8" standalone="no"?><!DOCTYPE svg PUBLIC "-//W3C//DTD SVG 1.1//EN" "http://www.w3.org/Graphics/SVG/1.1/DTD/svg11.dtd"><svg width="100%" height="100%" viewBox="0 0 84 84" version="1.1" xmlns="http://www.w3.org/2000/svg" xmlns:xlink="http://www.w3.org/1999/xlink" xml:space="preserve" xmlns:serif="http://www.serif.com/" style="fill-rule:evenodd;clip-rule:evenodd;stroke-linejoin:round;stroke-miterlimit:2;"><g><path d="M41.71,20.014c-11.773,0 -21.528,9.586 -21.528,21.528c-0,11.941 9.587,21.528 21.528,21.528c11.941,-0 21.527,-9.755 21.527,-21.528c0,-11.773 -9.754,-21.528 -21.527,-21.528Zm-0,35.318c-7.569,0 -13.792,-6.223 -13.792,-13.79c0,-7.569 6.223,-13.791 13.792,-13.791c7.568,-0 13.791,6.222 13.791,13.791c0,7.567 -6.223,13.79 -13.791,13.79Z" style="fill:#fff;fill-rule:nonzero;"/><circle cx="64.079" cy="19.509" r="4.877" style="fill:#fff;"/><path d="M76.692,6.896c-4.373,-4.541 -10.596,-6.896 -17.659,-6.896l-34.647,0c-14.631,0 -24.386,9.755 -24.386,24.386l-0,34.479c-0,7.231 2.355,13.454 7.063,17.995c4.541,4.373 10.597,6.559 17.492,6.559l34.31,0c7.231,0 13.286,-2.353 17.658,-6.559c4.543,-4.372 6.896,-10.595 6.896,-17.827l0,-34.647c0,-7.063 -2.353,-13.118 -6.727,-17.49Zm-0.673,52.137c0,5.213 -1.849,9.418 -4.877,12.277c-3.028,2.86 -7.232,4.373 -12.277,4.373l-34.31,0c-5.046,0 -9.25,-1.513 -12.278,-4.373c-3.026,-3.027 -4.541,-7.231 -4.541,-12.445l0,-34.479c0,-5.044 1.515,-9.249 4.541,-12.277c2.86,-2.858 7.232,-4.373 12.278,-4.373l34.647,0c5.044,0 9.249,1.515 12.277,4.541c2.858,3.028 4.54,7.232 4.54,12.109l0,34.647Z" style="fill:#fff;fill-rule:nonzero;"/></g></svg>