<?xml version="1.0" encoding="UTF-8" standalone="no"?><!DOCTYPE svg PUBLIC "-//W3C//DTD SVG 1.1//EN" "http://www.w3.org/Graphics/SVG/1.1/DTD/svg11.dtd"><svg width="100%" height="100%" viewBox="0 0 87 99" version="1.1" xmlns="http://www.w3.org/2000/svg" xmlns:xlink="http://www.w3.org/1999/xlink" xml:space="preserve" xmlns:serif="http://www.serif.com/" style="fill-rule:evenodd;clip-rule:evenodd;stroke-linejoin:round;stroke-miterlimit:2;"><path d="M84.796,40.493c-8.195,0.02 -16.193,-2.537 -22.857,-7.307l-0,33.274c-0.006,16.597 -13.665,30.252 -30.263,30.252c-16.602,-0 -30.264,-13.662 -30.264,-30.263c0,-16.603 13.662,-30.263 30.264,-30.263c1.39,-0 2.779,0.095 4.155,0.286l0,16.735c-1.349,-0.424 -2.754,-0.64 -4.168,-0.64c-7.622,0 -13.893,6.272 -13.893,13.893c0,7.621 6.271,13.893 13.893,13.893c7.621,-0 13.892,-6.272 13.892,-13.893l0,-65.048l16.384,0c-0.011,1.385 0.105,2.766 0.347,4.128c1.149,6.144 4.783,11.549 10.036,14.935c3.7,2.447 8.039,3.751 12.474,3.75l0,16.268Z" style="fill:#fff;fill-rule:nonzero;stroke:#fff;stroke-width:2.82px;"/></svg>