<?xml version="1.0" encoding="UTF-8" standalone="no"?><!DOCTYPE svg PUBLIC "-//W3C//DTD SVG 1.1//EN" "http://www.w3.org/Graphics/SVG/1.1/DTD/svg11.dtd"><svg width="100%" height="100%" viewBox="0 0 91 65" version="1.1" xmlns="http://www.w3.org/2000/svg" xmlns:xlink="http://www.w3.org/1999/xlink" xml:space="preserve" xmlns:serif="http://www.serif.com/" style="fill-rule:evenodd;clip-rule:evenodd;stroke-linejoin:round;stroke-miterlimit:2;"><path d="M86.277,11.544c-0.989,-3.724 -3.903,-6.657 -7.602,-7.652c-6.706,-1.809 -33.596,-1.809 -33.596,-1.809c-0,0 -26.89,0 -33.596,1.809c-3.7,0.995 -6.614,3.928 -7.603,7.652c-1.797,6.749 -1.797,20.831 -1.797,20.831c0,0 0,14.083 1.797,20.832c0.989,3.724 3.903,6.535 7.603,7.53c6.706,1.808 33.596,1.808 33.596,1.808c-0,0 26.889,0 33.596,-1.808c3.699,-0.995 6.613,-3.806 7.602,-7.53c1.797,-6.749 1.797,-20.832 1.797,-20.832c-0,0 -0,-14.082 -1.797,-20.831Zm-49.993,33.617l0,-25.571l22.475,12.786l-22.475,12.785Z" style="fill:#fff;fill-rule:nonzero;stroke:#fff;stroke-width:4.17px;"/></svg>