<svg preserveAspectRatio="xMidYMid meet" data-bbox="20 87.427 160 25.146" viewBox="20 87.427 160 25.146" height="200" width="200" xmlns="http://www.w3.org/2000/svg" data-type="color" role="presentation" aria-hidden="true"><defs><style>#comp-l8aww2o01 svg [data-color="1"] {fill: #FF6D00;}</style></defs>
  <g>
    <path fill="#010203" d="M33.22 87.427l3.064 9.683 10.156-.078-8.263 5.906 3.213 9.635-8.17-6.033-8.17 6.033 3.212-9.635L20 97.032l10.156.078 3.064-9.683z" data-color="1"></path>
    <path fill="#010203" d="M66.61 87.427l3.064 9.683 10.156-.078-8.263 5.906 3.213 9.635-8.17-6.033-8.17 6.033 3.212-9.635-8.262-5.906 10.156.078 3.064-9.683z" data-color="1"></path>
    <path fill="#010203" d="M100 87.427l3.064 9.683 10.156-.078-8.263 5.906 3.213 9.635-8.17-6.033-8.17 6.033 3.213-9.635-8.263-5.906 10.156.078L100 87.427z" data-color="1"></path>
    <path fill="#010203" d="M133.39 87.427l3.064 9.683 10.156-.078-8.262 5.906 3.212 9.635-8.17-6.033-8.17 6.033 3.213-9.635-8.263-5.906 10.156.078 3.064-9.683z" data-color="1"></path>
    <path fill="#010203" d="M166.78 87.427l3.064 9.683L180 97.032l-8.262 5.906 3.212 9.635-8.17-6.033-8.17 6.033 3.213-9.635-8.263-5.906 10.156.078 3.064-9.683z" data-color="1"></path>
  </g>
</svg>