<svg preserveAspectRatio="xMidYMid meet" data-bbox="27.071 27.071 145.858 145.858" xmlns="http://www.w3.org/2000/svg" width="200" height="200" viewBox="27.071 27.071 145.858 145.858" data-type="color" role="presentation" aria-hidden="true" aria-labelledby="svgcid--rz10f65jxcy4">
  <g>
    <path fill="#006aff" d="M100 27.071c-40.213 0-72.929 32.716-72.929 72.929S59.787 172.929 100 172.929s72.929-32.716 72.929-72.929S140.213 27.071 100 27.071zm34.668 128.974l-5.814-10.071a2 2 0 10-3.464 2l5.821 10.083c-8.744 4.719-18.671 7.504-29.21 7.821v-11.637a2 2 0 00-4 0v11.637c-10.539-.316-20.466-3.101-29.21-7.821l5.821-10.083a2 2 0 10-3.464-2l-5.814 10.071a66.438 66.438 0 01-21.377-21.377l10.071-5.814a2 2 0 10-2-3.464l-10.083 5.821c-4.719-8.744-7.505-18.671-7.821-29.21h11.637a2 2 0 000-4H34.122c.316-10.539 3.101-20.466 7.821-29.21l10.083 5.821a2 2 0 002-3.464l-10.071-5.814a66.438 66.438 0 0121.377-21.377l5.814 10.071a2 2 0 103.464-2l-5.82-10.085c8.744-4.719 18.671-7.505 29.21-7.821v11.637a2 2 0 004 0V34.122c10.539.316 20.466 3.101 29.21 7.821l-5.821 10.083a2 2 0 103.464 2l5.814-10.071a66.438 66.438 0 0121.377 21.377l-10.071 5.814a2 2 0 102 3.464l10.083-5.821c4.719 8.744 7.505 18.671 7.821 29.21H154.24a2 2 0 000 4h11.637c-.316 10.539-3.101 20.466-7.821 29.21l-10.083-5.821a2 2 0 10-2 3.464l10.071 5.814a66.402 66.402 0 01-21.376 21.379z" data-color="1"></path>
    <path fill="#006aff" d="M120.611 98H102V69.625a2 2 0 00-4 0V100a2 2 0 002 2c.189 0 .369-.035.542-.084.174.049.353.084.542.084h19.526a2 2 0 00.001-4z" data-color="1"></path>
  </g>
</svg>