<svg width="100%" height="100%" viewBox="0 0 125 166" version="1.1" xmlns="http://www.w3.org/2000/svg" xmlns:xlink="http://www.w3.org/1999/xlink" xml:space="preserve" xmlns:serif="http://www.serif.com/" style="fill-rule:evenodd;clip-rule:evenodd;stroke-linejoin:round;stroke-miterlimit:2;"><path d="M70.112,162.261c16.674,-20.868 54.704,-71.444 54.704,-99.853c0,-34.454 -27.954,-62.408 -62.408,-62.408c-34.454,0 -62.408,27.954 -62.408,62.408c0,28.409 38.03,78.985 54.705,99.853c3.998,4.973 11.409,4.973 15.407,-0Zm-7.704,-120.656c11.412,0 20.803,9.391 20.803,20.803c-0,11.412 -9.391,20.803 -20.803,20.803c-11.412,-0 -20.803,-9.391 -20.803,-20.803c0,-11.412 9.391,-20.803 20.803,-20.803Z" style="fill:#2d68f5;fill-rule:nonzero;"/></svg>